<?xml version="1.0" encoding="UTF-8" standalone="no"?>
<!DOCTYPE svg PUBLIC "-//W3C//DTD SVG 1.1//EN"
 "http://www.w3.org/Graphics/SVG/1.1/DTD/svg11.dtd">
<!-- Generated by graphviz version 2.40.1 (20161225.0304)
 -->
<!-- Title: G Pages: 1 -->
<svg width="693pt" height="81pt"
 viewBox="0.00 0.00 693.00 80.50" xmlns="http://www.w3.org/2000/svg" xmlns:xlink="http://www.w3.org/1999/xlink">
<g id="graph0" class="graph" transform="scale(1 1) rotate(0) translate(4 76.5)">
<title>G</title>
<polygon fill="#ffffff" stroke="transparent" points="-4,4 -4,-76.5 689,-76.5 689,4 -4,4"/>
<!-- user\nagents -->
<g id="node1" class="node">
<title>user\nagents</title>
<path fill="none" stroke="#000000" d="M12,-.5C12,-.5 72,-.5 72,-.5 78,-.5 84,-6.5 84,-12.5 84,-12.5 84,-44.5 84,-44.5 84,-50.5 78,-56.5 72,-56.5 72,-56.5 12,-56.5 12,-56.5 6,-56.5 0,-50.5 0,-44.5 0,-44.5 0,-12.5 0,-12.5 0,-6.5 6,-.5 12,-.5"/>
<text text-anchor="middle" x="42" y="-34.9" font-family="Inconsolata" font-size="22.00" fill="#000000">user</text>
<text text-anchor="middle" x="42" y="-10.9" font-family="Inconsolata" font-size="22.00" fill="#000000">agents</text>
</g>
<!-- web\nserver -->
<g id="node2" class="node">
<title>web\nserver</title>
<path fill="none" stroke="#000000" d="M175,-.5C175,-.5 235,-.5 235,-.5 241,-.5 247,-6.5 247,-12.5 247,-12.5 247,-44.5 247,-44.5 247,-50.5 241,-56.5 235,-56.5 235,-56.5 175,-56.5 175,-56.5 169,-56.5 163,-50.5 163,-44.5 163,-44.5 163,-12.5 163,-12.5 163,-6.5 169,-.5 175,-.5"/>
<text text-anchor="middle" x="205" y="-34.9" font-family="Inconsolata" font-size="22.00" fill="#000000">web</text>
<text text-anchor="middle" x="205" y="-10.9" font-family="Inconsolata" font-size="22.00" fill="#000000">server</text>
</g>
<!-- user\nagents&#45;&gt;web\nserver -->
<g id="edge1" class="edge">
<title>user\nagents&#45;&gt;web\nserver</title>
<path fill="none" stroke="#000000" d="M94.6111,-28.5C113.2319,-28.5 134.1636,-28.5 152.7539,-28.5"/>
<polygon fill="#000000" stroke="#000000" points="84.4008,-28.5 94.4009,-24.0001 89.4008,-28.5 94.4008,-28.5001 94.4008,-28.5001 94.4008,-28.5001 89.4008,-28.5 94.4008,-33.0001 84.4008,-28.5 84.4008,-28.5"/>
<polygon fill="#000000" stroke="#000000" points="162.8115,-28.5 152.8115,-33.0001 157.8115,-28.5 152.8115,-28.5001 152.8115,-28.5001 152.8115,-28.5001 157.8115,-28.5 152.8114,-24.0001 162.8115,-28.5 162.8115,-28.5"/>
<text text-anchor="middle" x="123.5" y="-34.5" font-family="Inconsolata" font-size="20.00" fill="#000000">HTTP</text>
</g>
<!-- PSGI\nhandler -->
<g id="node3" class="node">
<title>PSGI\nhandler</title>
<path fill="#ffff88" stroke="#000000" d="M443,-.5C443,-.5 514,-.5 514,-.5 520,-.5 526,-6.5 526,-12.5 526,-12.5 526,-44.5 526,-44.5 526,-50.5 520,-56.5 514,-56.5 514,-56.5 443,-56.5 443,-56.5 437,-56.5 431,-50.5 431,-44.5 431,-44.5 431,-12.5 431,-12.5 431,-6.5 437,-.5 443,-.5"/>
<text text-anchor="middle" x="478.5" y="-34.9" font-family="Inconsolata" font-size="22.00" fill="#000000">PSGI</text>
<text text-anchor="middle" x="478.5" y="-10.9" font-family="Inconsolata" font-size="22.00" fill="#000000">handler</text>
</g>
<!-- web\nserver&#45;&gt;PSGI\nhandler -->
<g id="edge2" class="edge">
<title>web\nserver&#45;&gt;PSGI\nhandler</title>
<path fill="none" stroke="#000000" d="M257.4282,-28.5C304.0882,-28.5 372.2299,-28.5 420.5057,-28.5"/>
<polygon fill="#000000" stroke="#000000" points="247.135,-28.5 257.135,-24.0001 252.135,-28.5 257.135,-28.5001 257.135,-28.5001 257.135,-28.5001 252.135,-28.5 257.1349,-33.0001 247.135,-28.5 247.135,-28.5"/>
<polygon fill="#000000" stroke="#000000" points="430.7952,-28.5 420.7952,-33.0001 425.7952,-28.5 420.7952,-28.5001 420.7952,-28.5001 420.7952,-28.5001 425.7952,-28.5 420.7952,-24.0001 430.7952,-28.5 430.7952,-28.5"/>
<text text-anchor="middle" x="339" y="-56.5" font-family="Inconsolata" font-size="20.00" fill="#000000">CGI, mod_perl,</text>
<text text-anchor="middle" x="339" y="-34.5" font-family="Inconsolata" font-size="20.00" fill="#000000">FastCGI, HTTP</text>
</g>
<!-- your\napp -->
<g id="node4" class="node">
<title>your\napp</title>
<path fill="none" stroke="#000000" d="M635,-.5C635,-.5 673,-.5 673,-.5 679,-.5 685,-6.5 685,-12.5 685,-12.5 685,-44.5 685,-44.5 685,-50.5 679,-56.5 673,-56.5 673,-56.5 635,-56.5 635,-56.5 629,-56.5 623,-50.5 623,-44.5 623,-44.5 623,-12.5 623,-12.5 623,-6.5 629,-.5 635,-.5"/>
<text text-anchor="middle" x="654" y="-34.9" font-family="Inconsolata" font-size="22.00" fill="#000000">your</text>
<text text-anchor="middle" x="654" y="-10.9" font-family="Inconsolata" font-size="22.00" fill="#000000">app</text>
</g>
<!-- PSGI\nhandler&#45;&gt;your\napp -->
<g id="edge3" class="edge">
<title>PSGI\nhandler&#45;&gt;your\napp</title>
<path fill="none" stroke="#000000" d="M536.8163,-28.5C561.6618,-28.5 590.0678,-28.5 612.6896,-28.5"/>
<polygon fill="#000000" stroke="#000000" points="526.4561,-28.5 536.4562,-24.0001 531.4561,-28.5 536.4561,-28.5001 536.4561,-28.5001 536.4561,-28.5001 531.4561,-28.5 536.4561,-33.0001 526.4561,-28.5 526.4561,-28.5"/>
<polygon fill="#000000" stroke="#000000" points="622.9651,-28.5 612.9652,-33.0001 617.9651,-28.5 612.9651,-28.5001 612.9651,-28.5001 612.9651,-28.5001 617.9651,-28.5 612.9651,-24.0001 622.9651,-28.5 622.9651,-28.5"/>
<text text-anchor="middle" x="574.5" y="-37.5" font-family="Inconsolata" font-size="30.00" fill="#0000ff">PSGI</text>
</g>
</g>
</svg>
