<?xml version="1.0" encoding="UTF-8" standalone="no"?>
<!DOCTYPE svg PUBLIC "-//W3C//DTD SVG 1.1//EN"
 "http://www.w3.org/Graphics/SVG/1.1/DTD/svg11.dtd">
<!-- Generated by graphviz version 2.40.1 (20161225.0304)
 -->
<!-- Title: G Pages: 1 -->
<svg width="731pt" height="143pt"
 viewBox="0.00 0.00 731.00 143.00" xmlns="http://www.w3.org/2000/svg" xmlns:xlink="http://www.w3.org/1999/xlink">
<g id="graph0" class="graph" transform="scale(1 1) rotate(0) translate(4 139)">
<title>G</title>
<polygon fill="#ffffff" stroke="transparent" points="-4,4 -4,-139 727,-139 727,4 -4,4"/>
<g id="clust1" class="cluster">
<title>cluster_devops</title>
<polygon fill="#ffff88" stroke="#000000" points="155,-8 155,-127 572,-127 572,-8 155,-8"/>
<text text-anchor="middle" x="363.5" y="-99" font-family="Inconsolata" font-size="30.00" fill="#000000">DevOps</text>
</g>
<!-- user\nagents -->
<g id="node1" class="node">
<title>user\nagents</title>
<path fill="none" stroke="#000000" d="M12,-16C12,-16 72,-16 72,-16 78,-16 84,-22 84,-28 84,-28 84,-60 84,-60 84,-66 78,-72 72,-72 72,-72 12,-72 12,-72 6,-72 0,-66 0,-60 0,-60 0,-28 0,-28 0,-22 6,-16 12,-16"/>
<text text-anchor="middle" x="42" y="-50.4" font-family="Inconsolata" font-size="22.00" fill="#000000">user</text>
<text text-anchor="middle" x="42" y="-26.4" font-family="Inconsolata" font-size="22.00" fill="#000000">agents</text>
</g>
<!-- web\nserver -->
<g id="node2" class="node">
<title>web\nserver</title>
<path fill="none" stroke="#000000" d="M175,-16C175,-16 235,-16 235,-16 241,-16 247,-22 247,-28 247,-28 247,-60 247,-60 247,-66 241,-72 235,-72 235,-72 175,-72 175,-72 169,-72 163,-66 163,-60 163,-60 163,-28 163,-28 163,-22 169,-16 175,-16"/>
<text text-anchor="middle" x="205" y="-50.4" font-family="Inconsolata" font-size="22.00" fill="#000000">web</text>
<text text-anchor="middle" x="205" y="-26.4" font-family="Inconsolata" font-size="22.00" fill="#000000">server</text>
</g>
<!-- user\nagents&#45;&gt;web\nserver -->
<g id="edge1" class="edge">
<title>user\nagents&#45;&gt;web\nserver</title>
<path fill="none" stroke="#000000" d="M94.6111,-44C113.2319,-44 134.1636,-44 152.7539,-44"/>
<polygon fill="#000000" stroke="#000000" points="84.4008,-44 94.4009,-39.5001 89.4008,-44 94.4008,-44.0001 94.4008,-44.0001 94.4008,-44.0001 89.4008,-44 94.4008,-48.5001 84.4008,-44 84.4008,-44"/>
<polygon fill="#000000" stroke="#000000" points="162.8115,-44 152.8115,-48.5001 157.8115,-44 152.8115,-44.0001 152.8115,-44.0001 152.8115,-44.0001 157.8115,-44 152.8114,-39.5001 162.8115,-44 162.8115,-44"/>
<text text-anchor="middle" x="123.5" y="-50" font-family="Inconsolata" font-size="20.00" fill="#000000">HTTP</text>
</g>
<!-- PSGI\nhandler -->
<g id="node3" class="node">
<title>PSGI\nhandler</title>
<path fill="none" stroke="#000000" d="M481,-16C481,-16 552,-16 552,-16 558,-16 564,-22 564,-28 564,-28 564,-60 564,-60 564,-66 558,-72 552,-72 552,-72 481,-72 481,-72 475,-72 469,-66 469,-60 469,-60 469,-28 469,-28 469,-22 475,-16 481,-16"/>
<text text-anchor="middle" x="516.5" y="-50.4" font-family="Inconsolata" font-size="22.00" fill="#000000">PSGI</text>
<text text-anchor="middle" x="516.5" y="-26.4" font-family="Inconsolata" font-size="22.00" fill="#000000">handler</text>
</g>
<!-- web\nserver&#45;&gt;PSGI\nhandler -->
<g id="edge2" class="edge">
<title>web\nserver&#45;&gt;PSGI\nhandler</title>
<path fill="none" stroke="#000000" d="M257.2409,-44C312.9613,-44 400.9769,-44 458.7293,-44"/>
<polygon fill="#000000" stroke="#000000" points="247.0103,-44 257.0103,-39.5001 252.0103,-44 257.0103,-44.0001 257.0103,-44.0001 257.0103,-44.0001 252.0103,-44 257.0102,-48.5001 247.0103,-44 247.0103,-44"/>
<polygon fill="#000000" stroke="#000000" points="468.7911,-44 458.7911,-48.5001 463.7911,-44 458.7911,-44.0001 458.7911,-44.0001 458.7911,-44.0001 463.7911,-44 458.791,-39.5001 468.7911,-44 468.7911,-44"/>
<text text-anchor="middle" x="358" y="-72" font-family="Inconsolata" font-size="20.00" fill="#000000">CGI, mod_perl,</text>
<text text-anchor="middle" x="358" y="-50" font-family="Inconsolata" font-size="20.00" fill="#000000">FastCGI, HTTP</text>
</g>
<!-- your\napp -->
<g id="node4" class="node">
<title>your\napp</title>
<path fill="none" stroke="#000000" d="M673,-16C673,-16 711,-16 711,-16 717,-16 723,-22 723,-28 723,-28 723,-60 723,-60 723,-66 717,-72 711,-72 711,-72 673,-72 673,-72 667,-72 661,-66 661,-60 661,-60 661,-28 661,-28 661,-22 667,-16 673,-16"/>
<text text-anchor="middle" x="692" y="-50.4" font-family="Inconsolata" font-size="22.00" fill="#000000">your</text>
<text text-anchor="middle" x="692" y="-26.4" font-family="Inconsolata" font-size="22.00" fill="#000000">app</text>
</g>
<!-- PSGI\nhandler&#45;&gt;your\napp -->
<g id="edge3" class="edge">
<title>PSGI\nhandler&#45;&gt;your\napp</title>
<path fill="none" stroke="#000000" d="M574.8163,-44C599.6618,-44 628.0678,-44 650.6896,-44"/>
<polygon fill="#000000" stroke="#000000" points="564.4561,-44 574.4562,-39.5001 569.4561,-44 574.4561,-44.0001 574.4561,-44.0001 574.4561,-44.0001 569.4561,-44 574.4561,-48.5001 564.4561,-44 564.4561,-44"/>
<polygon fill="#000000" stroke="#000000" points="660.9651,-44 650.9652,-48.5001 655.9651,-44 650.9651,-44.0001 650.9651,-44.0001 650.9651,-44.0001 655.9651,-44 650.9651,-39.5001 660.9651,-44 660.9651,-44"/>
<text text-anchor="middle" x="612.5" y="-53" font-family="Inconsolata" font-size="30.00" fill="#0000ff">PSGI</text>
</g>
</g>
</svg>
