<?xml version="1.0" encoding="UTF-8" standalone="no"?>
<!DOCTYPE svg PUBLIC "-//W3C//DTD SVG 1.1//EN"
 "http://www.w3.org/Graphics/SVG/1.1/DTD/svg11.dtd">
<!-- Generated by graphviz version 2.40.1 (20161225.0304)
 -->
<!-- Title: G Pages: 1 -->
<svg width="414pt" height="70pt"
 viewBox="0.00 0.00 414.00 69.50" xmlns="http://www.w3.org/2000/svg" xmlns:xlink="http://www.w3.org/1999/xlink">
<g id="graph0" class="graph" transform="scale(1 1) rotate(0) translate(4 65.5)">
<title>G</title>
<polygon fill="#ffffff" stroke="transparent" points="-4,4 -4,-65.5 410,-65.5 410,4 -4,4"/>
<!-- user\nagents -->
<g id="node1" class="node">
<title>user\nagents</title>
<path fill="none" stroke="#000000" d="M12,-.5C12,-.5 72,-.5 72,-.5 78,-.5 84,-6.5 84,-12.5 84,-12.5 84,-44.5 84,-44.5 84,-50.5 78,-56.5 72,-56.5 72,-56.5 12,-56.5 12,-56.5 6,-56.5 0,-50.5 0,-44.5 0,-44.5 0,-12.5 0,-12.5 0,-6.5 6,-.5 12,-.5"/>
<text text-anchor="middle" x="42" y="-34.9" font-family="Inconsolata" font-size="22.00" fill="#000000">user</text>
<text text-anchor="middle" x="42" y="-10.9" font-family="Inconsolata" font-size="22.00" fill="#000000">agents</text>
</g>
<!-- web\nserver -->
<g id="node2" class="node">
<title>web\nserver</title>
<path fill="#ffff88" stroke="#000000" d="M175,-.5C175,-.5 235,-.5 235,-.5 241,-.5 247,-6.5 247,-12.5 247,-12.5 247,-44.5 247,-44.5 247,-50.5 241,-56.5 235,-56.5 235,-56.5 175,-56.5 175,-56.5 169,-56.5 163,-50.5 163,-44.5 163,-44.5 163,-12.5 163,-12.5 163,-6.5 169,-.5 175,-.5"/>
<text text-anchor="middle" x="205" y="-34.9" font-family="Inconsolata" font-size="22.00" fill="#000000">web</text>
<text text-anchor="middle" x="205" y="-10.9" font-family="Inconsolata" font-size="22.00" fill="#000000">server</text>
</g>
<!-- user\nagents&#45;&gt;web\nserver -->
<g id="edge1" class="edge">
<title>user\nagents&#45;&gt;web\nserver</title>
<path fill="none" stroke="#000000" d="M94.6111,-28.5C113.2319,-28.5 134.1636,-28.5 152.7539,-28.5"/>
<polygon fill="#000000" stroke="#000000" points="84.4008,-28.5 94.4009,-24.0001 89.4008,-28.5 94.4008,-28.5001 94.4008,-28.5001 94.4008,-28.5001 89.4008,-28.5 94.4008,-33.0001 84.4008,-28.5 84.4008,-28.5"/>
<polygon fill="#000000" stroke="#000000" points="162.8115,-28.5 152.8115,-33.0001 157.8115,-28.5 152.8115,-28.5001 152.8115,-28.5001 152.8115,-28.5001 157.8115,-28.5 152.8114,-24.0001 162.8115,-28.5 162.8115,-28.5"/>
<text text-anchor="middle" x="123.5" y="-34.5" font-family="Inconsolata" font-size="20.00" fill="#000000">HTTP</text>
</g>
<!-- your\napp -->
<g id="node3" class="node">
<title>your\napp</title>
<path fill="none" stroke="#000000" d="M356,-.5C356,-.5 394,-.5 394,-.5 400,-.5 406,-6.5 406,-12.5 406,-12.5 406,-44.5 406,-44.5 406,-50.5 400,-56.5 394,-56.5 394,-56.5 356,-56.5 356,-56.5 350,-56.5 344,-50.5 344,-44.5 344,-44.5 344,-12.5 344,-12.5 344,-6.5 350,-.5 356,-.5"/>
<text text-anchor="middle" x="375" y="-34.9" font-family="Inconsolata" font-size="22.00" fill="#000000">your</text>
<text text-anchor="middle" x="375" y="-10.9" font-family="Inconsolata" font-size="22.00" fill="#000000">app</text>
</g>
<!-- web\nserver&#45;&gt;your\napp -->
<g id="edge2" class="edge">
<title>web\nserver&#45;&gt;your\napp</title>
<path fill="none" stroke="#000000" d="M257.1811,-28.5C281.7741,-28.5 310.6973,-28.5 333.7319,-28.5"/>
<polygon fill="#000000" stroke="#000000" points="247.0225,-28.5 257.0225,-24.0001 252.0225,-28.5 257.0225,-28.5001 257.0225,-28.5001 257.0225,-28.5001 252.0225,-28.5 257.0224,-33.0001 247.0225,-28.5 247.0225,-28.5"/>
<polygon fill="#000000" stroke="#000000" points="343.8642,-28.5 333.8642,-33.0001 338.8642,-28.5 333.8642,-28.5001 333.8642,-28.5001 333.8642,-28.5001 338.8642,-28.5 333.8642,-24.0001 343.8642,-28.5 343.8642,-28.5"/>
<text text-anchor="middle" x="295.5" y="-37.5" font-family="Inconsolata" font-size="30.00" fill="#0000ff">PSGI</text>
</g>
</g>
</svg>
