<?xml version="1.0" encoding="UTF-8" standalone="no"?>
<!DOCTYPE svg PUBLIC "-//W3C//DTD SVG 1.1//EN"
 "http://www.w3.org/Graphics/SVG/1.1/DTD/svg11.dtd">
<!-- Generated by graphviz version 2.40.1 (20161225.0304)
 -->
<!-- Title: G Pages: 1 -->
<svg width="251pt" height="70pt"
 viewBox="0.00 0.00 251.00 69.50" xmlns="http://www.w3.org/2000/svg" xmlns:xlink="http://www.w3.org/1999/xlink">
<g id="graph0" class="graph" transform="scale(1 1) rotate(0) translate(4 65.5)">
<title>G</title>
<polygon fill="#ffffff" stroke="transparent" points="-4,4 -4,-65.5 247,-65.5 247,4 -4,4"/>
<!-- user\nagents -->
<g id="node1" class="node">
<title>user\nagents</title>
<path fill="none" stroke="#000000" d="M12,-.5C12,-.5 72,-.5 72,-.5 78,-.5 84,-6.5 84,-12.5 84,-12.5 84,-44.5 84,-44.5 84,-50.5 78,-56.5 72,-56.5 72,-56.5 12,-56.5 12,-56.5 6,-56.5 0,-50.5 0,-44.5 0,-44.5 0,-12.5 0,-12.5 0,-6.5 6,-.5 12,-.5"/>
<text text-anchor="middle" x="42" y="-34.9" font-family="Inconsolata" font-size="22.00" fill="#000000">user</text>
<text text-anchor="middle" x="42" y="-10.9" font-family="Inconsolata" font-size="22.00" fill="#000000">agents</text>
</g>
<!-- your\napp -->
<g id="node2" class="node">
<title>your\napp</title>
<path fill="none" stroke="#000000" d="M193,-.5C193,-.5 231,-.5 231,-.5 237,-.5 243,-6.5 243,-12.5 243,-12.5 243,-44.5 243,-44.5 243,-50.5 237,-56.5 231,-56.5 231,-56.5 193,-56.5 193,-56.5 187,-56.5 181,-50.5 181,-44.5 181,-44.5 181,-12.5 181,-12.5 181,-6.5 187,-.5 193,-.5"/>
<text text-anchor="middle" x="212" y="-34.9" font-family="Inconsolata" font-size="22.00" fill="#000000">your</text>
<text text-anchor="middle" x="212" y="-10.9" font-family="Inconsolata" font-size="22.00" fill="#000000">app</text>
</g>
<!-- user\nagents&#45;&gt;your\napp -->
<g id="edge1" class="edge">
<title>user\nagents&#45;&gt;your\napp</title>
<path fill="none" stroke="#000000" d="M94.1811,-28.5C118.7741,-28.5 147.6973,-28.5 170.7319,-28.5"/>
<polygon fill="#000000" stroke="#000000" points="84.0225,-28.5 94.0225,-24.0001 89.0225,-28.5 94.0225,-28.5001 94.0225,-28.5001 94.0225,-28.5001 89.0225,-28.5 94.0224,-33.0001 84.0225,-28.5 84.0225,-28.5"/>
<polygon fill="#000000" stroke="#000000" points="180.8642,-28.5 170.8642,-33.0001 175.8642,-28.5 170.8642,-28.5001 170.8642,-28.5001 170.8642,-28.5001 175.8642,-28.5 170.8642,-24.0001 180.8642,-28.5 180.8642,-28.5"/>
<text text-anchor="middle" x="132.5" y="-37.5" font-family="Inconsolata" font-size="30.00" fill="#0000ff">PSGI</text>
</g>
</g>
</svg>
